<?xml version="1.0" encoding="UTF-8" standalone="no"?>
<!DOCTYPE svg PUBLIC "-//W3C//DTD SVG 1.1//EN" "http://www.w3.org/Graphics/SVG/1.1/DTD/svg11.dtd">
<svg width="100%" height="100%" viewBox="0 0 1179 1261" version="1.1" xmlns="http://www.w3.org/2000/svg" xmlns:xlink="http://www.w3.org/1999/xlink" xml:space="preserve" xmlns:serif="http://www.serif.com/" style="fill-rule:evenodd;clip-rule:evenodd;stroke-linejoin:round;stroke-miterlimit:2;">
    <g transform="matrix(1,0,0,1,1297.97,-1235.13)">
        <g transform="matrix(2.36385,0,0,2.28868,1271.26,559.335)">
            <g transform="matrix(1.28831,0,0,1.28831,-3330.43,-963.957)">
                <path d="M1884.01,1203.73C1872.47,1195.09 1842.26,1170.44 1838.57,1124.81C1836.26,1096.19 1845.25,1066.84 1861.42,1044.83C1868.11,1035.72 1874.41,1030.47 1875.2,1029.79C1886.44,1020.16 1895.13,1018.42 1898.71,1017.91C1896.08,1018.4 1882.87,1020.72 1867.49,1039.4C1851.69,1058.58 1839.65,1088.29 1839.98,1118.41C1840.1,1129.65 1841.87,1145.78 1850.37,1163.27C1860.43,1183.96 1875.43,1197.02 1884.01,1203.73Z" style="fill:rgb(212,101,40);"/>
            </g>
            <g transform="matrix(-1.75286,0,0,1.15413,2557.42,-818.841)">
                <path d="M1885.2,1207.71C1884.73,1207.2 1878.91,1201.36 1872.78,1184.32C1865.35,1163.62 1858.87,1129.7 1865.04,1092.9C1867.43,1078.68 1872.87,1056.61 1887.25,1033.79C1892.48,1025.48 1897.51,1019.38 1898.71,1017.91C1889.84,1027.75 1875.12,1046.51 1867,1076.53C1856.09,1116.86 1862.36,1159.77 1873.39,1187.22C1876.81,1195.72 1880.91,1203.24 1885.07,1207.58C1885.08,1207.59 1885.08,1207.59 1885.2,1207.71Z" style="fill:rgb(212,101,40);"/>
            </g>
            <g transform="matrix(1.28831,0,0,1.28831,-3330.43,-963.957)">
                <path d="M1947.56,1358.7C1962.88,1331.79 1961.94,1318.78 1962.85,1301.43C1967.36,1215.25 2022.5,1178.53 2128.48,1128.5C2122.72,1154.07 2121.95,1167.98 2118.47,1199.02C2110.2,1272.86 2079.14,1319.03 1988.32,1322.78L1947.56,1358.7Z" style="fill:rgb(24,90,72);"/>
                <g transform="matrix(1,0,0,1,-72.5062,-39.6084)">
                    <path d="M2161.8,1207.02C2158.18,1218.42 2152.91,1234.3 2146.12,1247.99C2137.52,1265.35 2127.41,1276.41 2117.67,1287.34C2109.57,1296.42 2099.36,1307.82 2087.07,1324.29C2074.31,1341.36 2064.08,1357.33 2060.82,1362.38C2073.32,1341.21 2083.53,1325.8 2093.83,1311.98C2100.93,1302.42 2107.82,1294.38 2109.1,1292.9C2119.98,1280.19 2128.49,1271.83 2136.87,1258.95C2139.09,1255.54 2146.04,1244.62 2154.54,1224.86C2157.88,1217.09 2159.82,1212.14 2161.8,1207.02Z" style="fill:white;"/>
                </g>
                <g transform="matrix(1,0,0,1,-72.5062,-39.6084)">
                    <path d="M2136.39,1312.78C2133.51,1317.11 2129.38,1320.51 2124.42,1323.77C2122.38,1325.11 2119.83,1326.51 2119.43,1326.74C2116.64,1328.27 2111.7,1330.55 2111.02,1330.86C2102.26,1334.89 2091.4,1339.52 2083.66,1343.71C2081.82,1344.7 2075,1348.31 2068.91,1353.58C2064.48,1357.42 2062,1360.75 2060.82,1362.38C2066.46,1353.12 2075.05,1345.96 2086.65,1339.37C2096.29,1333.89 2107.3,1329.71 2117.73,1324.77C2120.9,1323.26 2126.29,1320.92 2131.06,1317.53C2134.12,1315.36 2135.71,1313.56 2136.39,1312.78Z" style="fill:white;"/>
                </g>
                <g transform="matrix(1,0,0,1,-72.5062,-39.6084)">
                    <path d="M2077.41,1272.97C2073.99,1277.6 2072.92,1284.84 2072.79,1285.66C2071.23,1295.2 2071.74,1307.9 2071.48,1319.04C2071.33,1325.21 2070.86,1337.14 2067.66,1347.81C2065.44,1355.19 2062.68,1359.7 2060.82,1362.38C2065.69,1354.43 2068.45,1344.69 2069.29,1329.68C2070.05,1316.14 2069.53,1302.49 2070.81,1292C2071.64,1285.26 2073.25,1278.37 2077.12,1273.36C2077.15,1273.32 2077.18,1273.29 2077.41,1272.97ZM2077.41,1272.97C2077.42,1272.95 2077.43,1272.94 2077.44,1272.93C2077.43,1272.94 2077.42,1272.95 2077.41,1272.97Z" style="fill:white;"/>
                </g>
                <g transform="matrix(1,0,0,1,-72.5062,-39.6084)">
                    <path d="M2089.49,1272.97C2089.5,1272.96 2089.51,1272.94 2089.52,1272.93C2089.51,1272.94 2089.49,1272.96 2089.49,1272.97ZM2089.49,1272.97C2087.08,1276.21 2085.8,1280.34 2085.59,1281.03C2083.36,1288.18 2083.28,1295.81 2082.13,1307.07C2080.84,1319.61 2078.41,1331.64 2070.88,1346.27C2068.94,1350.05 2066.76,1353.55 2066.38,1354.17C2063.94,1358.09 2061.73,1361.14 2060.82,1362.38C2065.99,1354.42 2072.91,1342.34 2077,1326.04C2080.07,1313.8 2080.56,1305.54 2081.81,1295.34C2081.85,1295.05 2082.36,1291.06 2082.97,1288.12C2084.12,1282.57 2085.82,1277.69 2089.2,1273.35C2089.22,1273.32 2089.24,1273.3 2089.49,1272.97Z" style="fill:white;"/>
                </g>
            </g>
            <g transform="matrix(-1.20777,0.083402,0.0908613,1.31579,1381.3,-1168.11)">
                <path d="M1947.56,1358.7C1962.88,1331.79 1961.94,1318.78 1962.85,1301.43C1967.36,1215.25 2022.5,1178.53 2128.48,1128.5C2122.72,1154.07 2121.95,1167.98 2118.47,1199.02C2110.2,1272.86 2079.14,1319.03 1988.32,1322.78L1947.56,1358.7Z" style="fill:rgb(24,90,72);"/>
                <g transform="matrix(1,0,0,1,-72.5062,-39.6084)">
                    <path d="M2161.8,1207.02C2159.5,1212.91 2153.3,1228.81 2146,1242.88C2140.46,1253.58 2135.59,1261.76 2127.28,1271.91C2115.15,1286.73 2102.88,1297.62 2081.28,1329.66C2071.8,1343.73 2062.39,1359.73 2060.82,1362.38C2066.01,1354.34 2079.58,1333.37 2095.58,1313.3C2103.43,1303.46 2109.05,1297.06 2118.03,1287C2129.36,1274.29 2137.38,1265.15 2145.66,1249.07C2145.67,1249.06 2147.18,1246.08 2148.47,1243.24C2154.36,1230.23 2158.83,1216.46 2161.8,1207.02Z" style="fill:white;"/>
                </g>
                <g transform="matrix(1,0,0,1,-72.5062,-39.6084)">
                    <path d="M2136.39,1312.78C2134.78,1314.61 2131.56,1317.91 2123.67,1321.91C2122.71,1322.4 2121.69,1322.95 2115.12,1325.99C2104.73,1330.8 2094.97,1334.5 2085.21,1340.19C2075.94,1345.58 2066.72,1352.57 2060.82,1362.38C2065.66,1355.7 2072.88,1349.01 2087.5,1341.72C2099.01,1335.98 2110.28,1331.53 2118.89,1327.02C2120.64,1326.1 2126.89,1322.65 2131.56,1318.36C2134.38,1315.75 2135.78,1313.71 2136.39,1312.78Z" style="fill:white;"/>
                </g>
                <g transform="matrix(1,0,0,1,-72.5062,-39.6084)">
                    <path d="M2077.25,1273.18C2077.32,1273.09 2077.38,1273.01 2077.44,1272.93C2077.43,1272.94 2077.34,1273.06 2077.25,1273.18ZM2077.25,1273.18C2075.39,1275.68 2071.47,1280.99 2070.33,1296.54C2069.3,1310.6 2070.24,1327.7 2068.06,1341.37C2066.39,1351.88 2063.39,1358.2 2060.82,1362.38C2065.26,1355.94 2069.28,1346.94 2070.88,1330.6C2072.16,1317.5 2071.2,1304.92 2072.06,1292.47C2072.71,1283.09 2074.45,1277.41 2077.13,1273.36C2077.16,1273.31 2077.2,1273.25 2077.25,1273.18Z" style="fill:white;"/>
                </g>
                <g transform="matrix(1,0,0,1,-72.5062,-39.6084)">
                    <path d="M2089.52,1272.93C2088.02,1274.93 2085.4,1278.16 2083.5,1285.69C2081.28,1294.49 2081.18,1304.46 2078.94,1316.82C2077.05,1327.26 2074.35,1335.89 2071.02,1343.56C2067.3,1352.1 2063.33,1358.52 2060.82,1362.38C2067.43,1353.31 2075.49,1340.27 2079.56,1323.29C2083.2,1308.09 2082.5,1293.89 2084.85,1283.79C2086.08,1278.53 2087.84,1275.38 2089.2,1273.35C2089.25,1273.29 2089.25,1273.29 2089.52,1272.93Z" style="fill:white;"/>
                </g>
            </g>
            <g transform="matrix(-0.976227,-0.715995,-0.780033,1.06354,2126.22,619.053)">
                <path d="M1861.2,1466.45C1876.52,1439.53 1950.48,1363.55 1948.11,1346.32C1923.9,1170.31 2002.55,1167.88 2128.48,1128.5C2122.72,1154.07 2125.6,1167.35 2123.78,1198.52C2119.45,1272.47 2111.9,1321.59 1967.44,1349.95L1861.2,1466.45Z" style="fill:rgb(212,101,40);"/>
                <g transform="matrix(1,5.55112e-17,0,1,-89.4005,-15.1679)">
                    <path d="M2183.01,1193.68C2181.03,1198.82 2175.66,1212.63 2168.05,1226.17C2166.1,1229.64 2160.61,1239.3 2152.55,1249.54C2142.59,1262.2 2132.7,1271.25 2119.93,1284.24C2106.08,1298.35 2096.2,1310.33 2087.76,1321.61C2083.2,1327.71 2073.29,1341.31 2060.82,1362.38C2068.36,1350.64 2082.36,1329.46 2101.39,1307.91C2111.7,1296.23 2119.7,1288.38 2131.05,1277.08C2141.2,1266.97 2153.22,1254.94 2162.82,1239.64C2173.44,1222.73 2179.86,1203.6 2183.01,1193.68Z" style="fill:white;"/>
                </g>
                <g transform="matrix(1,5.55112e-17,0,1,-89.4005,-15.1679)">
                    <path d="M2136.39,1312.78C2134.74,1314.66 2131.51,1317.95 2123.68,1321.93C2122.78,1322.39 2121.65,1322.99 2115.14,1326.01C2104.79,1330.8 2094.97,1334.53 2085.22,1340.21C2075.95,1345.6 2066.71,1352.57 2060.82,1362.38C2065.66,1355.7 2072.88,1349 2087.49,1341.7C2100.44,1335.22 2114.12,1329.95 2121.89,1325.31C2128.7,1321.25 2133.4,1317.31 2136.39,1312.78Z" style="fill:white;"/>
                </g>
                <g transform="matrix(1,5.55112e-17,0,1,-89.4005,-15.1679)">
                    <path d="M2077.2,1273.25C2077.26,1273.17 2077.31,1273.1 2077.36,1273.04C2077.28,1273.15 2077.24,1273.2 2077.2,1273.25ZM2077.36,1273.04C2077.38,1273.01 2077.41,1272.97 2077.44,1272.93C2077.41,1272.96 2077.39,1273 2077.36,1273.04ZM2077.2,1273.25C2075.35,1275.73 2071.46,1281.13 2070.32,1296.57C2069.28,1310.67 2070.22,1327.76 2068.06,1341.39C2066.4,1351.82 2063.43,1358.14 2060.82,1362.38C2066.03,1354.81 2070.91,1343.35 2071.53,1319.81C2071.78,1310.18 2071.46,1301.33 2072.07,1292.44C2072.71,1283.07 2074.44,1277.41 2077.13,1273.36C2077.16,1273.31 2077.18,1273.28 2077.2,1273.25Z" style="fill:white;"/>
                </g>
                <g transform="matrix(1,5.55112e-17,0,1,-89.4005,-15.1679)">
                    <path d="M2089.52,1272.93C2088.01,1274.95 2085.39,1278.19 2083.49,1285.71C2081.29,1294.44 2081.18,1304.24 2079,1316.48C2076.95,1327.98 2074.03,1336.6 2071.11,1343.35C2067.36,1352.02 2063.32,1358.53 2060.82,1362.38C2067.55,1353.14 2076.32,1339.04 2080.18,1320.52C2082.29,1310.38 2082.62,1301.32 2083.47,1292.8C2084.29,1284.6 2085.67,1278.6 2089.2,1273.35C2089.24,1273.3 2089.24,1273.3 2089.52,1272.93Z" style="fill:white;"/>
                </g>
            </g>
            <g transform="matrix(1.28831,0,0,1.28831,-3330.43,-963.957)">
                <path d="M1760.95,1235.26C1761.12,1239.23 1761.76,1248.28 1764.66,1258.64C1775.25,1296.57 1805.61,1316.71 1831.63,1324.44C1853.54,1330.96 1867.79,1327.8 1869.47,1327.56C1878.47,1326.31 1887.75,1330.7 1894.18,1334.61C1900.93,1338.72 1907.26,1344.18 1910.25,1347.16C1906.06,1343.27 1888.39,1328.25 1872.67,1328.54C1869.38,1328.61 1868.35,1329.3 1862.88,1329.73C1836.33,1331.81 1794.93,1318.51 1773.89,1282.52C1762.73,1263.44 1761.31,1244.82 1760.95,1235.26ZM1760.95,1235.26C1760.91,1234.36 1760.9,1233.72 1760.89,1233.38C1760.9,1233.96 1760.92,1234.59 1760.95,1235.26Z" style="fill:rgb(212,101,40);"/>
            </g>
            <g transform="matrix(-1.28897,0,0,1.28831,1661.16,-963.957)">
                <path d="M1760.89,1233.41C1760.89,1233.4 1760.89,1233.39 1760.89,1233.38C1760.89,1233.39 1760.89,1233.4 1760.89,1233.41ZM1760.89,1233.41C1761.2,1243.7 1762.24,1268.84 1780.59,1292.42C1804.07,1322.58 1844,1333.38 1868.59,1329C1870.38,1328.68 1877.05,1327.09 1888.76,1332.51C1898.59,1337.06 1907.21,1344.33 1910.25,1347.16C1908.92,1345.85 1892.74,1329.95 1876.56,1327.63C1871.82,1326.95 1869.03,1327.66 1867.14,1327.93C1841.91,1331.54 1800.32,1319.33 1777.37,1286.01C1764.38,1267.15 1761.74,1247.67 1761.03,1236.89C1760.97,1235.96 1760.9,1233.78 1760.89,1233.41Z" style="fill:rgb(212,101,40);"/>
            </g>
        </g>
    </g>
</svg>
