<?xml version="1.0" encoding="UTF-8" standalone="no"?>
<!DOCTYPE svg PUBLIC "-//W3C//DTD SVG 1.1//EN" "http://www.w3.org/Graphics/SVG/1.1/DTD/svg11.dtd">
<svg width="100%" height="100%" viewBox="0 0 1183 1261" version="1.1" xmlns="http://www.w3.org/2000/svg" xmlns:xlink="http://www.w3.org/1999/xlink" xml:space="preserve" xmlns:serif="http://www.serif.com/" style="fill-rule:evenodd;clip-rule:evenodd;stroke-linejoin:round;stroke-miterlimit:2;">
    <g transform="matrix(1,0,0,1,1297.97,310.829)">
        <g transform="matrix(2.37187,0,0,2.28868,1279.98,-986.621)">
            <g transform="matrix(1.28831,0,0,1.28831,-3330.43,-963.957)">
                <path d="M1884.01,1203.73C1872.47,1195.09 1842.26,1170.45 1838.57,1124.81C1836.3,1096.66 1844.95,1067.12 1861.65,1044.51C1866.75,1037.61 1871.62,1033.04 1872.59,1032.14C1885.39,1020.13 1895.42,1018.38 1898.71,1017.91C1896.09,1018.39 1882.87,1020.71 1867.49,1039.4C1851.69,1058.58 1839.65,1088.29 1839.97,1118.41C1840.1,1129.67 1841.88,1145.79 1850.37,1163.27C1860.43,1183.96 1875.43,1197.02 1884.01,1203.73Z" style="fill:rgb(212,101,40);"/>
            </g>
            <g transform="matrix(-1.75286,0,0,1.15413,2557.42,-818.841)">
                <path d="M1885.2,1207.71C1884.73,1207.2 1878.91,1201.36 1872.78,1184.32C1865.34,1163.6 1858.86,1129.68 1865.04,1092.89C1867.46,1078.46 1872.93,1056.6 1887.11,1034.01C1892.37,1025.62 1897.44,1019.46 1898.71,1017.91C1889,1028.68 1870.84,1051.7 1864,1089.98C1857.47,1126.52 1863.72,1163.47 1873.61,1187.77C1876.95,1195.96 1880.97,1203.3 1885.07,1207.58C1885.08,1207.59 1885.08,1207.59 1885.2,1207.71Z" style="fill:rgb(212,101,40);"/>
            </g>
            <g transform="matrix(1.28831,0,0,1.28831,-3330.43,-963.957)">
                <path d="M1947.56,1358.7C1962.88,1331.79 1961.94,1318.78 1962.85,1301.43C1967.36,1215.25 2022.5,1178.53 2128.48,1128.5C2122.72,1154.07 2121.95,1167.98 2118.47,1199.02C2110.2,1272.86 2079.14,1319.03 1988.32,1322.78L1947.56,1358.7Z" style="fill:rgb(24,90,72);"/>
                <g transform="matrix(1,0,0,1,-72.5062,-39.6084)">
                    <path d="M2161.8,1207.02C2158.2,1218.38 2152.92,1234.29 2146.12,1248C2137.51,1265.35 2127.42,1276.4 2117.65,1287.36C2109.39,1296.62 2099.04,1308.18 2086.5,1325.04C2074.16,1341.64 2064.38,1356.85 2060.82,1362.38C2073.33,1341.21 2083.54,1325.8 2093.83,1311.97C2100.94,1302.42 2107.83,1294.38 2109.1,1292.9C2119.87,1280.33 2128.48,1271.83 2136.8,1259.07C2138.99,1255.71 2145.98,1244.78 2154.54,1224.86C2157.87,1217.11 2159.81,1212.16 2161.8,1207.02Z" style="fill:rgb(12,29,23);"/>
                </g>
                <g transform="matrix(1,0,0,1,-72.5062,-39.6084)">
                    <path d="M2136.39,1312.78C2133.46,1317.17 2129.28,1320.57 2124.41,1323.77C2122.38,1325.11 2119.83,1326.51 2119.42,1326.74C2111.83,1330.92 2094.38,1337.91 2083.65,1343.71C2081.82,1344.7 2075,1348.31 2068.91,1353.58C2064.48,1357.42 2061.99,1360.75 2060.82,1362.38C2065.94,1353.97 2073.26,1347.64 2082.27,1341.97C2086.99,1339 2092.03,1336.49 2092.9,1336.06C2100.28,1332.39 2109.84,1328.51 2117.74,1324.76C2120.89,1323.27 2126.29,1320.92 2131.06,1317.53C2134.12,1315.36 2135.71,1313.56 2136.39,1312.78Z" style="fill:rgb(12,29,23);"/>
                </g>
                <g transform="matrix(1,0,0,1,-72.5062,-39.6084)">
                    <path d="M2077.41,1272.97C2077.42,1272.95 2077.43,1272.94 2077.44,1272.93C2077.43,1272.94 2077.42,1272.95 2077.41,1272.97ZM2077.41,1272.97C2073.99,1277.6 2072.92,1284.85 2072.79,1285.66C2071.23,1295.2 2071.74,1307.9 2071.47,1319.04C2071.33,1325.22 2070.86,1337.15 2067.66,1347.81C2065.44,1355.19 2062.68,1359.7 2060.82,1362.38C2065.69,1354.43 2068.45,1344.68 2069.3,1329.68C2070.05,1316.15 2069.53,1302.49 2070.82,1292C2071.64,1285.26 2073.25,1278.37 2077.12,1273.36C2077.15,1273.32 2077.18,1273.29 2077.41,1272.97Z" style="fill:rgb(12,29,23);"/>
                </g>
                <g transform="matrix(1,0,0,1,-72.5062,-39.6084)">
                    <path d="M2089.49,1272.97C2089.5,1272.96 2089.51,1272.94 2089.52,1272.93C2089.51,1272.94 2089.49,1272.96 2089.49,1272.97ZM2089.49,1272.97C2087.08,1276.21 2085.8,1280.35 2085.58,1281.03C2083.36,1288.18 2083.28,1295.81 2082.12,1307.07C2080.84,1319.56 2078.43,1331.62 2070.88,1346.28C2068.93,1350.05 2066.76,1353.55 2066.38,1354.17C2063.94,1358.09 2061.73,1361.13 2060.82,1362.38C2066.01,1354.38 2072.92,1342.32 2077.01,1326.04C2080.08,1313.8 2080.56,1305.53 2081.81,1295.33C2081.85,1295.05 2082.36,1291.06 2082.97,1288.12C2084.12,1282.57 2085.82,1277.69 2089.2,1273.35C2089.22,1273.32 2089.24,1273.3 2089.49,1272.97Z" style="fill:rgb(12,29,23);"/>
                </g>
            </g>
            <g transform="matrix(-1.20777,0.083402,0.0908613,1.31579,1381.3,-1168.11)">
                <path d="M1947.56,1358.7C1962.88,1331.79 1961.94,1318.78 1962.85,1301.43C1967.36,1215.25 2022.5,1178.53 2128.48,1128.5C2122.72,1154.07 2121.95,1167.98 2118.47,1199.02C2110.2,1272.86 2079.14,1319.03 1988.32,1322.78L1947.56,1358.7Z" style="fill:rgb(24,90,72);"/>
                <g transform="matrix(1,0,0,1,-72.5062,-39.6084)">
                    <path d="M2161.8,1207.02C2159.54,1212.81 2153.32,1228.78 2146.01,1242.88C2140.49,1253.53 2135.61,1261.74 2127.28,1271.91C2115.14,1286.75 2102.88,1297.62 2081.28,1329.66C2071.8,1343.73 2062.39,1359.73 2060.82,1362.38C2066.02,1354.31 2079.59,1333.36 2095.58,1313.3C2103.43,1303.45 2109.06,1297.04 2118.01,1287.01C2129.39,1274.26 2137.37,1265.15 2145.66,1249.07C2145.89,1248.62 2147.33,1245.72 2148.32,1243.54C2154.26,1230.51 2158.74,1216.74 2161.8,1207.02Z" style="fill:rgb(12,29,23);"/>
                </g>
                <g transform="matrix(1,0,0,1,-72.5062,-39.6084)">
                    <path d="M2136.39,1312.78C2134.79,1314.6 2131.58,1317.91 2123.67,1321.91C2122.69,1322.41 2121.68,1322.95 2115.12,1325.99C2104.73,1330.8 2094.97,1334.5 2085.21,1340.19C2075.93,1345.59 2066.71,1352.58 2060.82,1362.38C2065.67,1355.7 2072.88,1349.01 2087.49,1341.72C2100.44,1335.26 2114.16,1329.96 2121.9,1325.33C2128.7,1321.26 2133.4,1317.31 2136.39,1312.78Z" style="fill:rgb(12,29,23);"/>
                </g>
                <g transform="matrix(1,0,0,1,-72.5062,-39.6084)">
                    <path d="M2077.25,1273.18C2075.38,1275.69 2071.47,1280.99 2070.33,1296.54C2069.3,1310.59 2070.24,1327.69 2068.06,1341.37C2066.39,1351.88 2063.39,1358.21 2060.82,1362.38C2065.26,1355.93 2069.28,1346.94 2070.88,1330.6C2072.16,1317.5 2071.2,1304.92 2072.06,1292.47C2072.7,1283.1 2074.44,1277.41 2077.13,1273.36C2077.16,1273.31 2077.2,1273.25 2077.25,1273.18ZM2077.25,1273.18C2077.32,1273.09 2077.38,1273.01 2077.44,1272.93C2077.43,1272.94 2077.34,1273.06 2077.25,1273.18Z" style="fill:rgb(12,29,23);"/>
                </g>
                <g transform="matrix(1,0,0,1,-72.5062,-39.6084)">
                    <path d="M2089.52,1272.93C2088.02,1274.93 2085.4,1278.16 2083.5,1285.69C2081.28,1294.49 2081.19,1304.46 2078.95,1316.82C2077.08,1327.1 2074.43,1335.67 2071.12,1343.33C2067.33,1352.1 2063.22,1358.68 2060.82,1362.38C2068.03,1352.48 2076.41,1338.59 2080.16,1320.56C2082.3,1310.26 2082.63,1300.88 2083.49,1292.53C2084.31,1284.54 2085.69,1278.58 2089.2,1273.35C2089.25,1273.29 2089.25,1273.29 2089.52,1272.93Z" style="fill:rgb(12,29,23);"/>
                </g>
            </g>
            <g transform="matrix(-0.976227,-0.715995,-0.780033,1.06354,2126.22,619.053)">
                <path d="M1861.2,1466.45C1876.52,1439.53 1950.48,1363.55 1948.11,1346.32C1923.9,1170.31 2002.55,1167.88 2128.48,1128.5C2122.72,1154.07 2125.6,1167.35 2123.78,1198.52C2119.45,1272.47 2111.9,1321.59 1967.44,1349.95L1861.2,1466.45Z" style="fill:rgb(212,101,40);"/>
                <g transform="matrix(1,5.55112e-17,0,1,-89.4005,-15.1679)">
                    <path d="M2183.01,1193.68C2181.03,1198.83 2175.66,1212.64 2168.05,1226.17C2168.03,1226.21 2165.76,1230.33 2162.57,1235.36C2153.86,1249.07 2145.5,1258.41 2135.7,1268.4C2121,1283.39 2104.95,1297.83 2084.14,1326.53C2078.76,1333.96 2073.71,1341.69 2072.84,1343.02C2070.07,1347.28 2065.85,1353.88 2060.82,1362.38C2068.35,1350.64 2082.35,1329.45 2101.38,1307.91C2111.7,1296.23 2119.7,1288.37 2131.05,1277.08C2141.31,1266.86 2153.23,1254.91 2162.82,1239.63C2173.51,1222.62 2179.96,1203.29 2183.01,1193.68Z" style="fill:rgb(12,29,23);"/>
                </g>
                <g transform="matrix(1,5.55112e-17,0,1,-89.4005,-15.1679)">
                    <path d="M2136.39,1312.78C2134.74,1314.66 2131.52,1317.95 2123.68,1321.93C2122.77,1322.39 2121.64,1323 2115.14,1326.01C2104.8,1330.8 2094.98,1334.53 2085.22,1340.21C2075.94,1345.61 2066.71,1352.58 2060.82,1362.38C2065.67,1355.69 2072.88,1348.99 2087.48,1341.69C2100.42,1335.23 2114.11,1329.95 2121.89,1325.31C2128.72,1321.24 2133.41,1317.29 2136.39,1312.78Z" style="fill:rgb(12,29,23);"/>
                </g>
                <g transform="matrix(1,5.55112e-17,0,1,-89.4005,-15.1679)">
                    <path d="M2077.2,1273.25C2077.26,1273.17 2077.31,1273.1 2077.36,1273.04C2077.28,1273.15 2077.24,1273.2 2077.2,1273.25ZM2077.36,1273.04C2077.38,1273.01 2077.41,1272.97 2077.44,1272.93C2077.41,1272.96 2077.39,1273 2077.36,1273.04ZM2077.2,1273.25C2075.35,1275.73 2071.46,1281.13 2070.32,1296.57C2069.28,1310.67 2070.22,1327.76 2068.06,1341.39C2066.4,1351.82 2063.43,1358.14 2060.82,1362.38C2066.02,1354.82 2070.91,1343.36 2071.52,1319.8C2071.78,1310.17 2071.46,1301.32 2072.06,1292.44C2072.71,1283.07 2074.44,1277.41 2077.13,1273.36C2077.16,1273.31 2077.18,1273.28 2077.2,1273.25Z" style="fill:rgb(12,29,23);"/>
                </g>
                <g transform="matrix(1,5.55112e-17,0,1,-89.4005,-15.1679)">
                    <path d="M2089.52,1272.93C2088.01,1274.95 2085.39,1278.19 2083.49,1285.71C2080.7,1296.77 2081.32,1309.15 2076.74,1326.9C2073.89,1337.94 2069.18,1349.51 2060.99,1362.13C2060.93,1362.21 2060.84,1362.29 2060.82,1362.38C2060.82,1362.43 2062.12,1360.58 2062.24,1360.42C2077.47,1338.78 2080.49,1321.28 2081.85,1310.16C2082.71,1303.08 2083.1,1294.89 2083.94,1288.83C2084.66,1283.69 2085.88,1278.29 2089.2,1273.35C2089.24,1273.3 2089.24,1273.3 2089.52,1272.93Z" style="fill:rgb(12,29,23);"/>
                </g>
            </g>
            <g transform="matrix(1.28831,0,0,1.28831,-3330.43,-963.957)">
                <path d="M1760.92,1234.48C1761.04,1237.93 1761.55,1247.54 1764.65,1258.64C1775.25,1296.58 1805.62,1316.71 1831.63,1324.44C1853.54,1330.96 1867.8,1327.79 1869.47,1327.56C1878.52,1326.3 1887.84,1330.75 1894.18,1334.61C1900.91,1338.7 1907.24,1344.16 1910.25,1347.16C1906.06,1343.27 1888.39,1328.25 1872.67,1328.54C1869.38,1328.61 1868.35,1329.3 1862.88,1329.73C1833.91,1332 1787.57,1315.97 1768.9,1272.64C1761.83,1256.23 1761.18,1241.13 1760.94,1235.15C1760.93,1234.84 1760.92,1234.68 1760.92,1234.48ZM1760.92,1234.48C1760.9,1233.98 1760.89,1233.61 1760.89,1233.38C1760.9,1233.98 1760.91,1234.25 1760.92,1234.48Z" style="fill:rgb(212,101,40);"/>
            </g>
            <g transform="matrix(-1.28897,0,0,1.28831,1661.16,-963.957)">
                <path d="M1760.89,1233.38C1761.19,1243.55 1762.2,1268.67 1780.45,1292.23C1804.32,1323.06 1844.98,1333.47 1869.01,1328.92C1871.6,1328.43 1878.25,1327.54 1889.18,1332.71C1898.87,1337.28 1907.29,1344.4 1910.25,1347.16C1909.16,1346.09 1900.28,1337.4 1889.29,1331.89C1876.87,1325.66 1869.93,1327.52 1867.35,1327.9C1842.23,1331.6 1800.62,1319.5 1777.56,1286.29C1764.4,1267.33 1761.74,1247.7 1761.03,1236.89C1760.96,1235.94 1760.89,1233.66 1760.89,1233.38Z" style="fill:rgb(212,101,40);"/>
            </g>
        </g>
    </g>
</svg>
